<svg width="15" height="15" viewBox="0 0 15 15" fill="none" xmlns="http://www.w3.org/2000/svg">
<g clip-path="url(#clip0_7_77)">
<path d="M12.9243 10.44C12.0182 9.66494 11.0986 9.19548 10.2035 9.96933L9.6691 10.437C9.27808 10.7765 8.55105 12.3629 5.74013 9.12933C2.92979 5.89987 4.60218 5.39704 4.99379 5.06045L5.53115 4.59216C6.42149 3.81655 6.08549 2.84016 5.44335 1.83509L5.05584 1.2263C4.41076 0.223573 3.70832 -0.434964 2.81564 0.339475L2.3333 0.760939C1.93876 1.04835 0.835932 1.9826 0.56842 3.75743C0.246469 5.88699 1.26208 8.32562 3.58891 11.0013C5.91281 13.6782 8.18813 15.0228 10.3434 14.9994C12.1347 14.9801 13.2164 14.0189 13.5548 13.6694L14.0389 13.2474C14.9292 12.4735 14.376 11.6856 13.4693 10.9088L12.9243 10.44Z" fill="#F3CB48"/>
</g>
<defs>
<clipPath id="clip0_7_77">
<rect width="15" height="15" fill="white"/>
</clipPath>
</defs>
</svg>
