<svg width="191" height="43" viewBox="0 0 191 43" fill="none" xmlns="http://www.w3.org/2000/svg">
<path d="M50.0504 0H2.98654V23.4191L8.70446 21.4449C8.70446 21.344 8.70446 21.2457 8.70446 21.1447C8.71951 16.2847 10.5708 11.6099 13.8872 8.05733C17.2036 4.50471 21.7401 2.33673 26.5876 1.98789C31.435 1.63905 36.2353 3.13512 40.0262 6.17627C43.8171 9.21742 46.3186 13.5789 47.0294 18.3867L52.7765 16.3859V0H50.0504Z" fill="white"/>
<path d="M47.1781 22.5375L41.8853 24.3602L39.9457 25.0272L38.9759 25.3593L38.8563 25.4018L30.9729 28.1173L29.9553 28.468C28.4512 28.8864 26.8542 28.8261 25.3858 28.2958C23.9175 27.7654 22.6506 26.7911 21.7611 25.5081L35.5324 20.7653L39.5179 19.3943C39.0713 16.5344 37.5796 13.942 35.3316 12.1186C33.0837 10.2952 30.2392 9.37061 27.3487 9.5237C24.4583 9.67678 21.7274 10.8967 19.6846 12.9473C17.6418 14.9979 16.4323 17.7335 16.2902 20.6245L20.661 19.1179C21.0468 17.7275 21.8215 16.476 22.8941 15.5108C23.9667 14.5456 25.2926 13.9066 26.7159 13.6691C28.1392 13.4316 29.6007 13.6054 30.9286 14.1701C32.2565 14.7348 33.3956 15.6669 34.2119 16.8568L20.3953 21.6155L16.9412 22.8032L9.95059 25.2132L2.98654 27.6045V42.42H52.7951V20.6006L49.5269 21.7245L47.1781 22.5216V22.5375ZM27.9652 40.4352C24.3088 40.435 20.728 39.3942 17.6411 37.4346C14.5542 35.475 12.0886 32.6774 10.5325 29.3687L17.7702 26.8738C18.6721 28.4853 19.9428 29.8602 21.4784 30.8859C23.014 31.9117 24.7708 32.5591 26.6048 32.775C27.0553 32.8304 27.5087 32.8588 27.9625 32.8601C28.3574 32.8598 28.7521 32.8394 29.1449 32.799C30.1848 32.6375 31.2089 32.3868 32.2058 32.0497L46.2508 27.2139C44.9788 31.0596 42.5275 34.4068 39.245 36.7802C35.9626 39.1535 32.0158 40.4324 27.9652 40.4352Z" fill="#F3CB48"/>
<path d="M34.2199 16.8491C33.4036 15.6592 32.2645 14.7271 30.9366 14.1624C29.6088 13.5977 28.1472 13.4239 26.7239 13.6614C25.3006 13.8989 23.9747 14.5378 22.9021 15.5031C21.8295 16.4683 21.0548 17.7197 20.669 19.1102L16.2903 20.6167C16.4343 17.7263 17.6453 14.992 19.6889 12.9429C21.7326 10.8938 24.4637 9.67551 27.3537 9.52377C30.2438 9.37203 33.0874 10.2976 35.3344 12.1214C37.5814 13.9453 39.0721 16.5377 39.518 19.3972L35.5325 20.7682L21.7611 25.5083C22.6496 26.7927 23.916 27.7686 25.3844 28.3005C26.8528 28.8323 28.4504 28.8937 29.9554 28.4762L30.973 28.1255L38.9893 25.3648L52.7846 20.6194V16.3868L47.0295 18.3875C46.3309 13.5685 43.8336 9.19282 40.0397 6.14046C36.2458 3.08809 31.4368 1.58552 26.58 1.93496C21.7232 2.2844 17.1789 4.45992 13.861 8.02396C10.5432 11.588 8.69794 16.2762 8.69646 21.1455C8.69646 21.2465 8.69646 21.3448 8.69646 21.4457L2.9865 23.4199L0 28.6436L34.2199 16.8491Z" fill="#221F1F"/>
<path d="M29.1475 32.8016C28.7546 32.842 28.36 32.8624 27.9651 32.8627C27.5112 32.8614 27.0579 32.8331 26.6074 32.7777C24.7734 32.5617 23.0166 31.9143 21.481 30.8886C19.9454 29.8629 18.6746 28.4879 17.7728 26.8765L10.5351 29.3714C12.1742 32.8593 14.822 35.7753 18.1361 37.7423C21.4503 39.7093 25.2782 40.6369 29.1252 40.4052C32.9721 40.1734 36.661 38.7929 39.715 36.4422C42.7689 34.0915 45.0475 30.8787 46.256 27.2192L32.211 32.055C31.2132 32.3914 30.1882 32.6412 29.1475 32.8016Z" fill="#221F1F"/>
<path class="clr-change" d="M71.4889 15.1998H64.6392V11.2727H70.4261V7.91161H64.6392V4.74177H71.3747V1.35938H60.9752V18.6061H71.4889V15.1998Z" fill="white"/>
<path class="clr-change" d="M90.1908 10.301L91.793 18.6069H95.4889L91.9843 0.828613H91.1792L85.6181 12.2619L80.0357 0.828613H79.2174L75.6915 18.6069H79.2413L80.8488 10.2691L85.2142 19.1622H86.006L90.1908 10.301Z" fill="white"/>
<path class="clr-change" d="M104.282 1.35938H100.525V18.609H104.282V1.35938Z" fill="white"/>
<path class="clr-change" d="M121.425 9.48197C122.107 8.61042 122.467 7.53021 122.445 6.42373C122.446 5.66895 122.252 4.92675 121.882 4.26888C121.5 3.59283 120.973 3.01016 120.338 2.56307C119.693 2.12553 118.972 1.81114 118.212 1.63577C117.148 1.42875 116.063 1.33965 114.979 1.37007H110.736V18.5982H114.426V11.8042H115.165L120.136 18.5982H124.565L119.097 11.1798C120.005 10.8215 120.806 10.237 121.425 9.48197ZM118.704 6.64161C118.721 6.95361 118.656 7.26457 118.516 7.54403C118.376 7.82349 118.166 8.06187 117.907 8.23582C117.333 8.62906 116.459 8.831 115.311 8.831H114.421V4.56116H115.048C116.377 4.56116 117.333 4.74449 117.915 5.09256C118.176 5.25331 118.388 5.48292 118.527 5.7562C118.666 6.02947 118.728 6.33582 118.704 6.64161Z" fill="white"/>
<path class="clr-change" d="M134.319 0.828613L125.848 18.5988H129.725L131.069 15.6761H137.961L139.29 18.5988H143.275L135.092 0.828613H134.319ZM136.572 12.4877H132.52L134.563 7.88302L136.572 12.4877Z" fill="white"/>
<path class="clr-change" d="M158.103 1.35938H143.307V4.71786H148.844V18.6061H152.598V4.71786H158.103V1.35938Z" fill="white"/>
<path class="clr-change" d="M166.2 11.2727H171.985V7.9116H166.2V4.74177H172.936V1.35938H162.534V18.6061H173.047V15.1998H166.2V11.2727Z" fill="white"/>
<path class="clr-change" d="M180.76 15.3971C179.933 15.0755 179.143 14.6658 178.404 14.1748L177.67 13.7019L178.021 18.0275L178.244 18.1338C178.954 18.4726 179.7 18.7276 180.468 18.8937C181.253 19.0691 182.055 19.1582 182.86 19.1594C184.669 19.1594 186.149 18.6705 187.252 17.7087C187.803 17.231 188.241 16.6364 188.533 15.968C188.825 15.2997 188.965 14.5745 188.941 13.8454C188.957 12.7639 188.624 11.7063 187.99 10.8296C187.371 9.97142 186.372 9.13977 184.929 8.28421L183.734 7.58541C183.125 7.26236 182.568 6.85042 182.081 6.36318C181.844 6.10424 181.712 5.76584 181.712 5.41462C181.701 5.21607 181.739 5.01787 181.823 4.83758C181.907 4.65729 182.034 4.50048 182.193 4.38103C182.788 3.92403 183.813 3.7832 185.238 4.25881C185.959 4.51295 186.656 4.83037 187.321 5.20737L187.937 5.54216L188.059 1.95517L187.81 1.83029C187.133 1.49028 186.42 1.22736 185.684 1.04646C184.969 0.871784 184.236 0.782593 183.5 0.780762C181.916 0.783419 180.612 1.23246 179.615 2.11193C179.12 2.53792 178.726 3.06906 178.462 3.66663C178.199 4.26419 178.071 4.91312 178.09 5.56607C178.078 6.5365 178.383 7.48431 178.959 8.26561C179.522 9.03349 180.434 9.78277 181.744 10.556L182.979 11.3026C183.636 11.6553 184.229 12.1161 184.733 12.6656C185.022 13.0168 185.179 13.4592 185.174 13.9144C185.182 14.1709 185.129 14.4255 185.018 14.6568C184.907 14.8881 184.741 15.0892 184.536 15.243C183.715 15.8727 182.304 15.9471 180.76 15.3971Z" fill="white"/>
<path class="clr-change" d="M64.7083 23.8237H60.9752V41.0733H71.7494V37.6431H64.7083V23.8237Z" fill="white"/>
<path class="clr-change" d="M80.0062 23.8237H76.2491V41.0733H80.0062V23.8237Z" fill="white"/>
<path class="clr-change" d="M93.3274 34.7542H97.2943V37.4485C96.8519 37.6144 96.3982 37.7485 95.9366 37.8497C95.4739 37.9504 95.0019 38.002 94.5284 38.0038C92.905 38.0038 91.6296 37.5043 90.6359 36.476C89.6421 35.4477 89.1533 34.1165 89.1533 32.424C89.1533 30.7315 89.6528 29.3472 90.6385 28.303C91.6243 27.2588 92.897 26.7433 94.5071 26.7433C95.3214 26.7454 96.1268 26.9126 96.8745 27.2348C97.7106 27.6048 98.4772 28.1153 99.141 28.744L99.7973 29.3472L100.145 24.801L99.9009 24.6682C99.0671 24.2076 98.1802 23.8507 97.2598 23.6053C96.3612 23.3698 95.4361 23.2511 94.5071 23.252C91.8501 23.252 89.6368 24.1261 87.9177 25.8479C86.1987 27.5696 85.3271 29.7936 85.3271 32.4532C85.3271 35.1129 86.1907 37.3395 87.8938 39.0506C89.597 40.7618 91.8209 41.6306 94.5071 41.6306C95.5789 41.6288 96.6457 41.485 97.6796 41.2028C98.7551 40.9096 99.7903 40.4848 100.762 39.9381L100.982 39.8132V31.3718H93.3274V34.7542Z" fill="white"/>
<path class="clr-change" d="M117.322 30.3548H110.369V23.8237H106.657V41.0733H110.369V33.7398H117.322V41.0733H121.013V23.8237H117.322V30.3548Z" fill="white"/>
<path class="clr-change" d="M125.422 27.1849H130.96V41.0733H134.717V27.1849H140.219V23.8237H125.422V27.1849Z" fill="white"/>
<path class="clr-change" d="M148.453 23.8237H144.696V41.0733H148.453V23.8237Z" fill="white"/>
<path class="clr-change" d="M165.766 33.5844L155.827 23.2725H154.907V41.0533H158.55V31.2728L168.511 41.5847H169.431V23.8039H165.766V33.5844Z" fill="white"/>
<path class="clr-change" d="M182.674 31.3718V34.7542H186.641V37.4484C186.199 37.6143 185.745 37.7484 185.284 37.8496C184.821 37.9503 184.349 38.002 183.875 38.0037C182.249 38.0037 180.977 37.5042 179.983 36.4759C178.989 35.4477 178.5 34.1165 178.5 32.424C178.5 30.7314 179 29.3471 179.986 28.3029C180.971 27.2587 182.244 26.7432 183.854 26.7432C184.668 26.7453 185.474 26.9125 186.222 27.2348C187.058 27.6048 187.824 28.1152 188.488 28.744L189.144 29.3471L189.492 24.8009L189.248 24.6681C188.414 24.2076 187.527 23.8506 186.607 23.6053C185.712 23.3689 184.79 23.2483 183.865 23.2466C181.208 23.2466 178.995 24.1207 177.275 25.8425C175.556 27.5643 174.685 29.7882 174.685 32.4479C174.685 35.1076 175.548 37.3341 177.252 39.0453C178.955 40.7564 181.179 41.6252 183.865 41.6252C184.937 41.6234 186.003 41.4796 187.037 41.1975C188.113 40.9043 189.148 40.4795 190.119 39.9327L190.34 39.8078V31.3718H182.674Z" fill="white"/>
</svg>
